# xmcd
#
# Track frame offsets: 
#        150
#        15002
#        35790
#        53113
#        72498
#        95259
#        110940
#        132776
#        145139
#        160542
#        172943
#        188988
#        203329
#        217608
#        231779
#        247577
#        263432
#        278520
#        293005
#
# Disc length: 4124 seconds
#
# Revision: 1
# Processed by: cddbd v1.5.2PL0 Copyright (c) Steve Scherf et al.
# Submitted via: ExactAudioCopy v1.0b4
#
DISCID=f1101a13
DTITLE=Clifton Chenier - Louisiana Blues and Zydeco
DYEAR=2005
DGENRE=Cajun, Zydeco, Blues
TTITLE0=Zydeco et Pas Sale
TTITLE1=Lafayette Waltz
TTITLE2=Louisiana Two Step
TTITLE3=Clifton's Waltz
TTITLE4=Louisiana Blues
TTITLE5=Hot Rod
TTITLE6=Banana Man
TTITLE7=Ay-Tete-Fee
TTITLE8=It's Hard
TTITLE9=I Can't Stand
TTITLE10=I Can Look Down at Your Woman
TTITLE11=Accordion Boogie
TTITLE12=Banana Man [Take 2]
TTITLE13=Ay, Ai Ai
TTITLE14=Clifton's Blues (Where Can My Baby Be)
TTITLE15=Let's Rock a While
TTITLE16=Elmore's Blues
TTITLE17=Clifton's Two Step
TTITLE18=Zydeco et Pas Sale [Take 1]
EXTD=
EXTT0=
EXTT1=
EXTT2=
EXTT3=
EXTT4=
EXTT5=
EXTT6=
EXTT7=
EXTT8=
EXTT9=
EXTT10=
EXTT11=
EXTT12=
EXTT13=
EXTT14=
EXTT15=
EXTT16=
EXTT17=
EXTT18=
PLAYORDER=
